<?xml version="1.0" encoding="UTF-8"?>
<svg width="8px" height="15px" viewBox="0 0 8 15" version="1.1" xmlns="http://www.w3.org/2000/svg" xmlns:xlink="http://www.w3.org/1999/xlink">
    <!-- Generator: Sketch 48.2 (47327) - http://www.bohemiancoding.com/sketch -->
    <title>Group 9</title>
    <desc>Created with Sketch.</desc>
    <defs></defs>
    <g id="guide" stroke="none" stroke-width="1" fill="none" fill-rule="evenodd" transform="translate(-1309.000000, -2055.000000)">
        <g id="Group-6-Copy-2" transform="translate(957.000000, 1601.000000)">
            <g id="Group-3-Copy-3" transform="translate(0.000000, 435.000000)">
                <g id="Group-7" transform="translate(344.000000, 15.000000)">
                    <g id="Group-9">
                        <rect id="Rectangle-11-Copy" fill-opacity="0" fill="#FF0000" x="0" y="0" width="24" height="24"></rect>
                        <path d="M8.25355779,11.989 L9.97678725,11.989 L9.97678725,18.7580645 C9.97678725,18.8917097 10.0902797,19 10.230345,19 L13.1521422,19 C13.2922075,19 13.4057,18.8917097 13.4057,18.7580645 L13.4057,12.0208871 L15.3866963,12.0208871 C15.5155037,12.0208871 15.6238743,11.9286613 15.6385806,11.8065806 L15.9394523,9.31454839 C15.9477183,9.24598387 15.9249488,9.17732258 15.8768742,9.1258871 C15.8287489,9.07440323 15.7598826,9.04493548 15.6876187,9.04493548 L13.4058014,9.04493548 L13.4058014,7.48280645 C13.4058014,7.01190323 13.67153,6.7731129 14.1956846,6.7731129 C14.2703828,6.7731129 15.6876187,6.7731129 15.6876187,6.7731129 C15.827684,6.7731129 15.9411765,6.66477419 15.9411765,6.53117742 L15.9411765,4.24372581 C15.9411765,4.11008065 15.827684,4.00179032 15.6876187,4.00179032 L13.6315185,4.00179032 C13.617015,4.0011129 13.5848132,4 13.5373472,4 C13.1805914,4 11.9405416,4.06682258 10.9609972,4.92666129 C9.87566841,5.8795 10.0265353,7.02037097 10.0625912,7.21817742 L10.0625912,9.0448871 L8.25355779,9.0448871 C8.11349247,9.0448871 8,9.15317742 8,9.28682258 L8,11.7470161 C8,11.8806613 8.11349247,11.989 8.25355779,11.989 Z" id="XMLID_835_" fill="#D8D8D8" fill-rule="nonzero"></path>
                    </g>
                </g>
            </g>
        </g>
    </g>
</svg>