<?xml version="1.0" encoding="UTF-8"?>
<svg width="17px" height="9px" viewBox="0 0 17 9" version="1.1" xmlns="http://www.w3.org/2000/svg" xmlns:xlink="http://www.w3.org/1999/xlink">
    <!-- Generator: Sketch 48.2 (47327) - http://www.bohemiancoding.com/sketch -->
    <title>Group 10</title>
    <desc>Created with Sketch.</desc>
    <defs></defs>
    <g id="guide" stroke="none" stroke-width="1" fill="none" fill-rule="evenodd" transform="translate(-1337.000000, -2059.000000)">
        <g id="Group-6-Copy-2" transform="translate(957.000000, 1601.000000)">
            <g id="Group-3-Copy-3" transform="translate(0.000000, 435.000000)">
                <g id="Group-7" transform="translate(344.000000, 15.000000)">
                    <g id="Group-10" transform="translate(32.000000, 0.000000)">
                        <rect id="Rectangle-11" fill-opacity="0" fill="#FF0000" x="0" y="0" width="24" height="24"></rect>
                        <path d="M18.0832408,13.72261 C18.626043,14.2376648 19.1989532,14.7222562 19.685787,15.2892502 C19.9008433,15.5412126 20.1044479,15.801222 20.2602025,16.0936281 C20.4809041,16.5092982 20.2810092,16.9667183 19.89751,16.9915383 L17.5136103,16.9904932 C16.8987641,17.040081 16.4082744,16.7995097 15.99585,16.3909459 C15.6657923,16.0642098 15.3601434,15.7164682 15.042774,15.3787068 C14.9126649,15.2406552 14.7764805,15.110755 14.6137904,15.0080785 C14.2883563,14.8027776 14.0058798,14.8656376 13.8199098,15.1955089 C13.6304989,15.5310234 13.5875414,15.90254 13.5689391,16.2764602 C13.5434011,16.8220306 13.3737216,16.9654642 12.8098439,16.990441 C11.6047756,17.0456721 10.4611059,16.8684832 9.39867373,16.2776621 C8.46199577,15.7568072 7.73564293,15.0215074 7.10343101,14.1890698 C5.87250219,12.5681391 4.92985642,10.7870017 4.08264191,8.95596295 C3.89194068,8.54342797 4.03140473,8.32198107 4.49974371,8.31414317 C5.27744126,8.29946016 6.05503127,8.30050522 6.83364281,8.31309812 C7.14972189,8.31759185 7.35897172,8.49378792 7.4810162,8.78399935 C7.90177396,9.78949786 8.41661888,10.7461401 9.06286323,11.6328682 C9.23496208,11.8689459 9.41044806,12.1050235 9.66034355,12.2711871 C9.9367985,12.4551688 10.1472849,12.3941899 10.2773402,12.0948865 C10.3598681,11.9051047 10.3959976,11.7006922 10.4146,11.4974293 C10.4762136,10.7981315 10.484332,10.1000356 10.3762662,9.40319372 C10.3099213,8.96829459 10.0578752,8.6867571 9.61136446,8.60445911 C9.38351226,8.5625002 9.4174374,8.48009771 9.52776131,8.35369845 C9.71937652,8.13570023 9.89959375,8 10.2588454,8 L12.9530176,8 C13.3771625,8.08135744 13.4713572,8.26654097 13.5294224,8.68132282 L13.5317343,11.5898643 C13.5271106,11.7504368 13.6142622,12.2269291 13.9118464,12.333211 C14.1500213,12.4088729 14.3070125,12.2236894 14.4499174,12.0769116 C15.094979,11.4115258 15.5553608,10.6251751 15.9666561,9.81092146 C16.1491852,9.45288603 16.3061226,9.08105589 16.4582212,8.70953927 C16.5709107,8.43385408 16.7477408,8.2982061 17.0672608,8.30421516 L19.660249,8.30646202 C19.7371317,8.30646202 19.8149283,8.30755933 19.8893916,8.31994322 C20.3263323,8.39231319 20.446065,8.57498859 20.3111171,8.98966594 C20.0984801,9.64026417 19.6847655,10.1824381 19.2802445,10.7271201 C18.8478199,11.3086403 18.3853412,11.8702522 17.9565188,12.4552211 C17.5625356,12.9894003 17.5938263,13.2586584 18.0832408,13.72261 Z" id="XMLID_807_" fill="#D8D8D8"></path>
                    </g>
                </g>
            </g>
        </g>
    </g>
</svg>