<?xml version="1.0" encoding="UTF-8"?>
<svg width="44px" height="44px" viewBox="0 0 44 44" version="1.1" xmlns="http://www.w3.org/2000/svg" xmlns:xlink="http://www.w3.org/1999/xlink">
    <!-- Generator: Sketch 48.2 (47327) - http://www.bohemiancoding.com/sketch -->
    <title>Group 8</title>
    <desc>Created with Sketch.</desc>
    <defs>
        <rect id="path-1" x="0" y="0" width="44" height="44"></rect>
    </defs>
    <g id="Order_popup" stroke="none" stroke-width="1" fill="none" fill-rule="evenodd">
        <g id="Group-8">
            <g id="Group-7">
                <g id="Rectangle-12">
                    <use fill="#EB0029" fill-rule="evenodd" xlink:href="#path-1"></use>
                    <rect stroke="#FFFFFF" stroke-width="2" x="1" y="1" width="42" height="42"></rect>
                </g>
                <path d="M30.2117177,14 C28.5499334,20.7311828 22.1797603,25.7419355 15,25.7419355 L15,24.7096774 C21.6045273,24.7096774 27.505992,20.172043 29.1464714,14 L30.2117177,14 Z M25.5672437,14 L26.6537949,14 C25.0985353,18.8172043 20.2836218,22.2795699 15,22.2795699 L15,21.2473118 C19.7083888,21.2258065 24.0332889,18.2150538 25.5672437,14 Z M15,14 L19.36751,14 L19.36751,19.5913978 C18.0039947,20.1935484 16.5126498,20.5376344 15,20.5376344 L15,14 Z M15,22.9677419 C20.6671105,22.9677419 25.7802929,19.1827957 27.3568575,14 L28.4434088,14 C26.8242344,19.7634409 21.2423435,24.0215054 15,24.0215054 L15,22.9677419 Z M19.3888149,30 L15.0213049,30 L15.0213049,26.4301075 C16.5126498,26.4301075 18.0039947,26.2150538 19.3888149,25.827957 L19.3888149,30 Z M25.3541944,30 L21.6045273,25.0322581 C22.9893475,24.4301075 24.2889481,23.6344086 25.4394141,22.6666667 L31,30 L25.3541944,30 Z" id="Combined-Shape" fill="#FFFFFF"></path>
            </g>
        </g>
    </g>
</svg>