<?xml version="1.0" encoding="UTF-8"?>
<svg width="24px" height="24px" viewBox="0 0 24 24" version="1.1" xmlns="http://www.w3.org/2000/svg" xmlns:xlink="http://www.w3.org/1999/xlink">
    <!-- Generator: Sketch 50.2 (55047) - http://www.bohemiancoding.com/sketch -->
    <title>hh.ru</title>
    <desc>Created with Sketch.</desc>
    <defs></defs>
    <g id="concern_NEW" stroke="none" stroke-width="1" fill="none" fill-rule="evenodd">
        <g id="Career_vacancy_inner" transform="translate(-76.000000, -441.000000)" fill-rule="nonzero">
            <g id="Group-2" transform="translate(60.000000, 429.000000)">
                <g id="hh.ru" transform="translate(16.000000, 12.000000)">
                    <path d="M12,24 C18.6275,24 24,18.6275 24,12 C24,5.3725 18.6275,0 12,0 C5.3725,0 0,5.3725 0,12 C0,18.6275 5.3725,24 12,24" id="Shape" fill="#D6001C"></path>
                    <path d="M6.825,6.5845 L6.825,10.6665 C7.4465,9.9255 8.1915,9.5525 9.0555,9.5525 C9.5005,9.5525 9.899,9.6375 10.2565,9.806 C10.615,9.9735 10.883,10.1885 11.064,10.4495 C11.246,10.713 11.369,11.0015 11.4355,11.3195 C11.5015,11.636 11.5345,12.1285 11.5345,12.7965 L11.5345,17.161 L9.6035,17.161 L9.6035,13.23 C9.6035,12.45 9.5685,11.956 9.495,11.746 C9.42613709,11.5402846 9.28952688,11.3640133 9.1075,11.246 C8.9215,11.1205 8.69,11.0585 8.4105,11.0585 C8.0905,11.0585 7.8035,11.1385 7.554,11.2975 C7.299,11.4575 7.116,11.6965 7,12.016 C6.882,12.336 6.823,12.8085 6.825,13.434 L6.823,17.161 L4.8945,17.161 L4.8945,6.5845 L6.8255,6.5845 M14.4285,6.5845 L14.4285,10.6665 C15.0505,9.9255 15.795,9.5525 16.6585,9.5525 C17.102,9.5525 17.5035,9.6375 17.8615,9.806 C18.2185,9.9735 18.4865,10.1885 18.6665,10.4495 C18.8481494,10.7112516 18.9745544,11.007274 19.038,11.3195 C19.1045,11.636 19.1375,12.1285 19.1375,12.7965 L19.1375,17.161 L17.2085,17.161 L17.2085,13.23 C17.2085,12.45 17.172,11.956 17.0985,11.746 C17.0296282,11.5400027 16.8925919,11.3636368 16.71,11.246 C16.526,11.1205 16.2925,11.0585 16.013,11.0585 C15.6935,11.0585 15.4065,11.1385 15.1565,11.2975 C14.905,11.4575 14.721,11.6965 14.6035,12.016 C14.4875,12.336 14.4285,12.8085 14.4285,13.434 L14.4285,17.161 L12.5,17.161 L12.5,6.5845 L14.4285,6.5845" id="Shape" fill="#FEFEFE"></path>
                </g>
            </g>
        </g>
    </g>
</svg>