<svg xmlns="http://www.w3.org/2000/svg" width="12" height="20" viewBox="0 0 12 20">
    <g fill="#FF7E31" fill-rule="evenodd">
        <path d="M5.789 10.316A5.163 5.163 0 0 1 .63 5.159 5.164 5.164 0 0 1 5.789 0a5.164 5.164 0 0 1 5.158 5.159 5.163 5.163 0 0 1-5.158 5.157zm0-7.293A2.138 2.138 0 0 0 3.653 5.16c0 1.177.958 2.135 2.136 2.135a2.138 2.138 0 0 0 2.135-2.135A2.138 2.138 0 0 0 5.79 3.023zM7.875 14.523a9.657 9.657 0 0 0 2.996-1.24 1.511 1.511 0 0 0-1.61-2.559 6.55 6.55 0 0 1-6.945 0 1.51 1.51 0 0 0-2.084.475 1.511 1.511 0 0 0 .474 2.084 9.667 9.667 0 0 0 2.995 1.24L.817 17.407a1.511 1.511 0 1 0 2.138 2.137l2.833-2.833 2.835 2.834a1.51 1.51 0 0 0 2.58-1.069c0-.4-.16-.785-.444-1.068l-2.884-2.885z"/>
    </g>
</svg>
