<?xml version="1.0" encoding="UTF-8"?>
<svg width="28px" height="28px" viewBox="0 0 28 28" version="1.1" xmlns="http://www.w3.org/2000/svg" xmlns:xlink="http://www.w3.org/1999/xlink">
    <!-- Generator: Sketch 51.1 (57501) - http://www.bohemiancoding.com/sketch -->
    <title>Page 1</title>
    <desc>Created with Sketch.</desc>
    <defs></defs>
    <g id="concern_NEW" stroke="none" stroke-width="1" fill="none" fill-rule="evenodd">
        <g id="Main_corporat" transform="translate(-1402.000000, -436.000000)" fill="#FFFFFF">
            <g id="Group-25" transform="translate(1392.000000, 426.000000)">
                <g id="Page-1" transform="translate(10.000000, 10.000000)">
                    <polygon id="Fill-1" points="13.0725 8.4805 14.8225 8.4805 14.8225 0 13.0725 0"></polygon>
                    <polygon id="Fill-2" points="19.52125 14.8225 28 14.8225 28 13.0725 19.52125 13.0725"></polygon>
                    <polygon id="Fill-3" points="13.178375 28 14.928375 28 14.928375 19.520375 13.178375 19.520375"></polygon>
                    <polygon id="Fill-4" points="0 14.926625 8.479625 14.926625 8.479625 13.176625 0 13.176625"></polygon>
                    <g id="Group-15" transform="translate(2.000000, 2.000000)">
                        <path d="M11.8907125,9.6090625 C10.6622125,9.6090625 9.6620875,10.6100625 9.6620875,11.8385625 L9.6620875,12.1631875 C9.6620875,13.3908125 10.6622125,14.3918125 11.8907125,14.3918125 L12.2153375,14.3918125 C13.4438375,14.3918125 14.4439625,13.3908125 14.4439625,12.1631875 L14.4439625,11.8385625 C14.4439625,10.6100625 13.4438375,9.6090625 12.2153375,9.6090625 L11.8907125,9.6090625 Z M12.2153375,16.1418125 L11.8907125,16.1418125 C9.6962125,16.1418125 7.9120875,14.3576875 7.9120875,12.1631875 L7.9120875,11.8385625 C7.9120875,9.6440625 9.6962125,7.8590625 11.8907125,7.8590625 L12.2153375,7.8590625 C14.4098375,7.8590625 16.1939625,9.6440625 16.1939625,11.8385625 L16.1939625,12.1631875 C16.1939625,14.3576875 14.4098375,16.1418125 12.2153375,16.1418125 Z" id="Fill-5"></path>
                        <path d="M22.19935,9.321975 L23.993975,9.321975 C23.115475,4.6031 19.36085,0.8861 14.62535,0.052225 L14.62535,1.8241 C18.39485,2.610725 21.370725,5.568225 22.19935,9.321975" id="Fill-7"></path>
                        <path d="M22.2300625,14.571975 C21.4425625,18.343225 18.4859375,21.31735 14.7313125,22.145975 L14.7313125,23.9406 C19.4510625,23.0621 23.1663125,19.307475 24.0019375,14.571975 L22.2300625,14.571975 Z" id="Fill-9"></path>
                        <path d="M1.88465,9.4279375 C2.67215,5.6610625 5.621775,2.6790625 9.375525,1.8513125 L9.375525,0.0689375 C4.65315,0.9474375 0.9309,4.6950625 0.095275,9.4279375 L1.88465,9.4279375 Z" id="Fill-11"></path>
                        <path d="M1.906875,14.6788125 L0.114,14.6788125 C0.9925,19.3994375 4.745375,23.1146875 9.480875,23.9503125 L9.480875,22.1766875 C5.711375,21.3900625 2.73725,18.4325625 1.906875,14.6788125" id="Fill-13"></path>
                    </g>
                </g>
            </g>
        </g>
    </g>
</svg>