<svg xmlns="http://www.w3.org/2000/svg" width="20" height="17" viewBox="0 0 20 17">
    <path fill="#44B1FF" fill-rule="evenodd" d="M6.29 17c7.547 0 11.675-6.54 11.675-12.21 0-.186-.004-.371-.012-.555A8.57 8.57 0 0 0 20 2.013a7.912 7.912 0 0 1-2.356.675A4.277 4.277 0 0 0 19.448.314c-.793.492-1.671.85-2.606 1.042A4.018 4.018 0 0 0 13.847 0c-2.266 0-4.104 1.922-4.104 4.291 0 .337.036.665.107.979C6.44 5.09 3.416 3.383 1.392.786a4.428 4.428 0 0 0-.556 2.157c0 1.489.725 2.803 1.826 3.572a3.938 3.938 0 0 1-1.858-.537l-.001.055c0 2.079 1.415 3.814 3.292 4.207a3.946 3.946 0 0 1-1.853.074c.522 1.705 2.037 2.946 3.833 2.98A8.008 8.008 0 0 1 0 15.073 11.25 11.25 0 0 0 6.29 17"/>
</svg>
