<svg xmlns="http://www.w3.org/2000/svg" width="22" height="13" viewBox="0 0 22 13">
    <path fill="#457EAE" fill-rule="nonzero" d="M18.934 8.266c.73.744 1.5 1.444 2.155 2.263.289.364.563.74.772 1.162.297.6.028 1.26-.488 1.297l-3.205-.002c-.826.072-1.486-.276-2.04-.866-.444-.472-.855-.974-1.282-1.462a3.082 3.082 0 0 0-.576-.535c-.438-.297-.818-.206-1.068.27-.254.485-.312 1.022-.337 1.562-.034.788-.263.995-1.02 1.031-1.62.08-3.158-.176-4.587-1.03-1.26-.752-2.236-1.814-3.086-3.016C2.517 6.598 1.25 4.026.112 1.38-.146.786.041.466.671.455A83.307 83.307 0 0 1 3.81.452c.425.007.706.261.87.68.566 1.453 1.258 2.835 2.127 4.115.231.341.467.682.803.922.372.266.655.178.83-.254.11-.274.16-.57.184-.863.083-1.01.094-2.019-.051-3.025-.09-.628-.429-1.035-1.029-1.154-.306-.06-.26-.18-.112-.362.257-.315.5-.511.983-.511h3.622c.57.118.697.385.775.984l.003 4.201c-.006.232.11.92.51 1.074.321.11.532-.158.724-.37.868-.961 1.487-2.097 2.04-3.273.245-.517.456-1.054.66-1.591.152-.398.39-.594.82-.586l3.485.004c.104 0 .208.001.308.02.588.104.749.368.567.967-.285.94-.842 1.722-1.386 2.51-.58.84-1.203 1.65-1.78 2.495-.529.772-.487 1.16.171 1.831z"/>
</svg>
