<?xml version="1.0" encoding="UTF-8"?>
<svg width="58px" height="58px" viewBox="0 0 58 58" version="1.1" xmlns="http://www.w3.org/2000/svg" xmlns:xlink="http://www.w3.org/1999/xlink">
    <!-- Generator: Sketch 48.2 (47327) - http://www.bohemiancoding.com/sketch -->
    <title>Group 12</title>
    <desc>Created with Sketch.</desc>
    <defs>
        <rect id="path-1" x="9" y="9" width="40" height="40"></rect>
    </defs>
    <g id="guide" stroke="none" stroke-width="1" fill="none" fill-rule="evenodd" transform="translate(-842.000000, -145.000000)">
        <g id="Group-12" transform="translate(842.000000, 145.000000)">
            <g id="Rectangle-17" transform="translate(29.000000, 29.000000) rotate(-315.000000) translate(-29.000000, -29.000000) ">
                <use fill="#E82134" fill-rule="evenodd" xlink:href="#path-1"></use>
                <rect stroke="#FFFFFF" stroke-width="2" x="10" y="10" width="38" height="38"></rect>
            </g>
            <path d="M36.9708768,21 C35.3354029,27.5954735 29.0660861,32.5052029 22,32.5052029 L22,31.4937565 C28.4999605,31.4937565 34.3079898,27.0476067 35.9224961,21 L36.9708768,21 Z M32.3999368,21 L33.4692852,21 C31.9386493,25.7200832 27.1999684,29.1126431 22,29.1126431 L22,28.1011967 C26.6338428,28.0801249 30.8902686,25.1300728 32.3999368,21 Z M22,21 L26.298361,21 L26.298361,26.4786681 C24.9564337,27.0686785 23.4887006,27.4058273 22,27.4058273 L22,21 Z M22,29.7869407 C27.5773855,29.7869407 32.609613,26.0783039 34.1612165,21 L35.2305648,21 C33.6370261,26.6472425 28.1435111,30.8194589 22,30.8194589 L22,29.7869407 Z M26.3193286,36.6774194 L22.0209676,36.6774194 L22.0209676,33.1795005 C23.4887006,33.1795005 24.9564337,32.9687825 26.3193286,32.5894901 L26.3193286,36.6774194 Z M32.1902607,36.6774194 L28.4999605,31.8098335 C29.8628555,31.2198231 31.14188,30.4401665 32.2741312,29.4919355 L37.7466786,36.6774194 L32.1902607,36.6774194 Z" id="Shape" fill="#FFFFFF" fill-rule="nonzero"></path>
        </g>
    </g>
</svg>